{"accessors":[{"bufferView":1,"componentType":5126,"count":36,"max":[1,0.9848080277442932,0.5],"min":[-1,-0.9848080277442932,-0.5],"type":"VEC3"},{"bufferView":1,"byteOffset":432,"componentType":5126,"count":36,"max":[1,0.9848077893257141,0],"min":[-1,-0.9848077893257141,0],"type":"VEC3"},{"bufferView":0,"componentType":5125,"count":204,"type":"SCALAR"},{"bufferView":1,"byteOffset":864,"componentType":5126,"count":36,"max":[1,0.9848080277442932,0.5],"min":[-1,-0.9848080277442932,-0.5],"type":"VEC3"},{"bufferView":1,"byteOffset":1296,"componentType":5126,"count":36,"max":[1,0.9848077893257141,0],"min":[-1,-0.9848077893257141,0],"type":"VEC3"},{"bufferView":0,"byteOffset":816,"componentType":5125,"count":204,"type":"SCALAR"},{"bufferView":1,"byteOffset":1728,"componentType":5126,"count":36,"max":[1,0.9848080277442932,0.5],"min":[-1,-0.9848080277442932,-0.5],"type":"VEC3"},{"bufferView":1,"byteOffset":2160,"componentType":5126,"count":36,"max":[1,0.9848077893257141,0],"min":[-1,-0.9848077893257141,0],"type":"VEC3"},{"bufferView":0,"byteOffset":1632,"componentType":5125,"count":204,"type":"SCALAR"},{"bufferView":1,"byteOffset":2592,"componentType":5126,"count":36,"max":[1,0.9848080277442932,0.5],"min":[-1,-0.9848080277442932,-0.5],"type":"VEC3"},{"bufferView":1,"byteOffset":3024,"componentType":5126,"count":36,"max":[1,0.9848077893257141,0],"min":[-1,-0.9848077893257141,0],"type":"VEC3"},{"bufferView":0,"byteOffset":2448,"componentType":5125,"count":204,"type":"SCALAR"},{"bufferView":1,"byteOffset":3456,"componentType":5126,"count":36,"max":[1,0.9848080277442932,0.5],"min":[-1,-0.9848080277442932,-0.5],"type":"VEC3"},{"bufferView":1,"byteOffset":3888,"componentType":5126,"count":36,"max":[1,0.9848077893257141,0],"min":[-1,-0.9848077893257141,0],"type":"VEC3"},{"bufferView":0,"byteOffset":3264,"componentType":5125,"count":204,"type":"SCALAR"},{"bufferView":1,"byteOffset":4320,"componentType":5126,"count":36,"max":[1,0.9848080277442932,0.5],"min":[-1,-0.9848080277442932,-0.5],"type":"VEC3"},{"bufferView":1,"byteOffset":4752,"componentType":5126,"count":36,"max":[1,0.9848077893257141,0],"min":[-1,-0.9848077893257141,0],"type":"VEC3"},{"bufferView":0,"byteOffset":4080,"componentType":5125,"count":204,"type":"SCALAR"},{"bufferView":1,"byteOffset":5184,"componentType":5126,"count":36,"max":[1,0.9848080277442932,0.5],"min":[-1,-0.9848080277442932,-0.5],"type":"VEC3"},{"bufferView":1,"byteOffset":5616,"componentType":5126,"count":36,"max":[1,0.9848077893257141,0],"min":[-1,-0.9848077893257141,0],"type":"VEC3"},{"bufferView":0,"byteOffset":4896,"componentType":5125,"count":204,"type":"SCALAR"},{"bufferView":1,"byteOffset":6048,"componentType":5126,"count":36,"max":[1,0.9848080277442932,0.5],"min":[-1,-0.9848080277442932,-0.5],"type":"VEC3"},{"bufferView":1,"byteOffset":6480,"componentType":5126,"count":36,"max":[1,0.9848077893257141,0],"min":[-1,-0.9848077893257141,0],"type":"VEC3"},{"bufferView":0,"byteOffset":5712,"componentType":5125,"count":204,"type":"SCALAR"},{"bufferView":1,"byteOffset":6912,"componentType":5126,"count":36,"max":[1,0.9848080277442932,0.5],"min":[-1,-0.9848080277442932,-0.5],"type":"VEC3"},{"bufferView":1,"byteOffset":7344,"componentType":5126,"count":36,"max":[1,0.9848077893257141,0],"min":[-1,-0.9848077893257141,0],"type":"VEC3"},{"bufferView":0,"byteOffset":6528,"componentType":5125,"count":204,"type":"SCALAR"},{"bufferView":1,"byteOffset":7776,"componentType":5126,"count":36,"max":[1,0.9848080277442932,0.5],"min":[-1,-0.9848080277442932,-0.5],"type":"VEC3"},{"bufferView":1,"byteOffset":8208,"componentType":5126,"count":36,"max":[1,0.9848077893257141,0],"min":[-1,-0.9848077893257141,0],"type":"VEC3"},{"bufferView":0,"byteOffset":7344,"componentType":5125,"count":204,"type":"SCALAR"},{"bufferView":1,"byteOffset":8640,"componentType":5126,"count":36,"max":[1,0.9848080277442932,0.5],"min":[-1,-0.9848080277442932,-0.5],"type":"VEC3"},{"bufferView":1,"byteOffset":9072,"componentType":5126,"count":36,"max":[1,0.9848077893257141,0],"min":[-1,-0.9848077893257141,0],"type":"VEC3"},{"bufferView":0,"byteOffset":8160,"componentType":5125,"count":204,"type":"SCALAR"},{"bufferView":1,"byteOffset":9504,"componentType":5126,"count":36,"max":[1,0.9848080277442932,0.5],"min":[-1,-0.9848080277442932,-0.5],"type":"VEC3"},{"bufferView":1,"byteOffset":9936,"componentType":5126,"count":36,"max":[1,0.9848077893257141,0],"min":[-1,-0.9848077893257141,0],"type":"VEC3"},{"bufferView":0,"byteOffset":8976,"componentType":5125,"count":204,"type":"SCALAR"},{"bufferView":1,"byteOffset":10368,"componentType":5126,"count":24,"max":[0.5,0.75,0.625],"min":[-0.5,-0.75,-0.625],"type":"VEC3"},{"bufferView":1,"byteOffset":10656,"componentType":5126,"count":24,"max":[1,1,1],"min":[-1,-1,-1],"type":"VEC3"},{"bufferView":0,"byteOffset":9792,"componentType":5125,"count":36,"type":"SCALAR"}],"asset":{"extras":{"author":"Symmetry312UBC (https://sketchfab.com/symmetry312ubc)","license":"CC-BY-4.0 (http://creativecommons.org/licenses/by/4.0/)","source":"https://sketchfab.com/3d-models/just-a-box-a73a1d207d1e45f99f28a73570e79bac","title":"Just a box"},"generator":"Sketchfab-12.68.0","version":"2.0"},"bufferViews":[{"buffer":0,"byteLength":9936,"name":"floatBufferViews","target":34963},{"buffer":0,"byteLength":10944,"byteOffset":9936,"byteStride":12,"name":"floatBufferViews","target":34962}],"buffers":[{"byteLength":20880,"uri":"data:application/octet-stream;base64,"}],"extensionsUsed":["KHR_materials_unlit"],"materials":[{"doubleSided":true,"extensions":{"KHR_materials_unlit":{}},"name":"im_0d5280ff","pbrMetallicRoughness":{"baseColorFactor":[0.051,0.3216,0.502,1],"metallicFactor":0}},{"doubleSided":true,"extensions":{"KHR_materials_unlit":{}},"name":"im_edge_cylinder","pbrMetallicRoughness":{"baseColorFactor":[0,0,0,1],"metallicFactor":0}}],"meshes":[{"name":"im_edge_cylinder","primitives":[{"attributes":{"NORMAL":1,"POSITION":0},"indices":2,"material":1,"mode":4}]},{"name":"im_edge_cylinder","primitives":[{"attributes":{"NORMAL":4,"POSITION":3},"indices":5,"material":1,"mode":4}]},{"name":"im_edge_cylinder","primitives":[{"attributes":{"NORMAL":7,"POSITION":6},"indices":8,"material":1,"mode":4}]},{"name":"im_edge_cylinder","primitives":[{"attributes":{"NORMAL":10,"POSITION":9},"indices":11,"material":1,"mode":4}]},{"name":"im_edge_cylinder","primitives":[{"attributes":{"NORMAL":13,"POSITION":12},"indices":14,"material":1,"mode":4}]},{"name":"im_edge_cylinder","primitives":[{"attributes":{"NORMAL":16,"POSITION":15},"indices":17,"material":1,"mode":4}]},{"name":"im_edge_cylinder","primitives":[{"attributes":{"NORMAL":19,"POSITION":18},"indices":20,"material":1,"mode":4}]},{"name":"im_edge_cylinder","primitives":[{"attributes":{"NORMAL":22,"POSITION":21},"indices":23,"material":1,"mode":4}]},{"name":"im_edge_cylinder","primitives":[{"attributes":{"NORMAL":25,"POSITION":24},"indices":26,"material":1,"mode":4}]},{"name":"im_edge_cylinder","primitives":[{"attributes":{"NORMAL":28,"POSITION":27},"indices":29,"material":1,"mode":4}]},{"name":"im_edge_cylinder","primitives":[{"attributes":{"NORMAL":31,"POSITION":30},"indices":32,"material":1,"mode":4}]},{"name":"im_edge_cylinder","primitives":[{"attributes":{"NORMAL":34,"POSITION":33},"indices":35,"material":1,"mode":4}]},{"name":"im_0d5280ff","primitives":[{"attributes":{"NORMAL":37,"POSITION":36},"indices":38,"material":0,"mode":4}]}],"nodes":[{"children":[1],"matrix":[1,0,0,0,0,1,0,0,0,0,1,0,0,-8.098780881482528e-7,8.098780881482524e-7,1],"name":"Sketchfab_model"},{"children":[2],"name":"Collada visual scene group"},{"children":[28,3],"name":"visgeom_0"},{"children":[4,6,8,10,12,14,16,18,20,22,24,26],"name":"geometry_edges0_0_box.off"},{"children":[5],"matrix":[-0.004999999888241291,-6.123233858871821e-19,0,0,6.123233858871821e-19,-0.004999999888241291,0,0,0,0,1.25,0,0.5,0.75,0,1],"name":"Object_4"},{"mesh":0,"name":"im_edge_cylinder"},{"children":[7],"matrix":[0.004999999888241291,0,0,0,0,1.1102229998097382e-18,0.004999999888241291,0,0,-1.5,3.3306690738754696e-16,0,0.5,0,0.625,1],"name":"Object_6"},{"mesh":1,"name":"im_edge_cylinder"},{"children":[9],"matrix":[1.1102229998097382e-18,0,0.004999999888241291,0,0,0.004999999888241291,0,0,-1,0,2.220446049250313e-16,0,0,0.75,0.625,1],"name":"Object_8"},{"mesh":2,"name":"im_edge_cylinder"},{"children":[11],"matrix":[0.004999999888241291,0,0,0,0,1.1102229998097382e-18,0.004999999888241291,0,0,-1.5,3.3306690738754696e-16,0,0.5,0,-0.625,1],"name":"Object_10"},{"mesh":3,"name":"im_edge_cylinder"},{"children":[13],"matrix":[1.1102229998097382e-18,0,0.004999999888241291,0,0,0.004999999888241291,0,0,-1,0,2.220446049250313e-16,0,0,0.75,-0.625,1],"name":"Object_12"},{"mesh":4,"name":"im_edge_cylinder"},{"children":[15],"matrix":[-0.004999999888241291,-6.123233858871821e-19,0,0,6.123233858871821e-19,-0.004999999888241291,0,0,0,0,1.25,0,0.5,-0.75,0,1],"name":"Object_14"},{"mesh":5,"name":"im_edge_cylinder"},{"children":[17],"matrix":[1.1102229998097382e-18,0,0.004999999888241291,0,0,0.004999999888241291,0,0,-1,0,2.220446049250313e-16,0,0,-0.75,0.625,1],"name":"Object_16"},{"mesh":6,"name":"im_edge_cylinder"},{"children":[19],"matrix":[1.1102229998097382e-18,0,0.004999999888241291,0,0,0.004999999888241291,0,0,-1,0,2.220446049250313e-16,0,0,-0.75,-0.625,1],"name":"Object_18"},{"mesh":7,"name":"im_edge_cylinder"},{"children":[21],"matrix":[-0.004999999888241291,-6.123233858871821e-19,0,0,6.123233858871821e-19,-0.004999999888241291,0,0,0,0,1.25,0,-0.5,0.75,0,1],"name":"Object_20"},{"mesh":8,"name":"im_edge_cylinder"},{"children":[23],"matrix":[0.004999999888241291,0,0,0,0,1.1102229998097382e-18,0.004999999888241291,0,0,-1.5,3.3306690738754696e-16,0,-0.5,0,0.625,1],"name":"Object_22"},{"mesh":9,"name":"im_edge_cylinder"},{"children":[25],"matrix":[0.004999999888241291,0,0,0,0,1.1102229998097382e-18,0.004999999888241291,0,0,-1.5,3.3306690738754696e-16,0,-0.5,0,-0.625,1],"name":"Object_24"},{"mesh":10,"name":"im_edge_cylinder"},{"children":[27],"matrix":[-0.004999999888241291,-6.123233858871821e-19,0,0,6.123233858871821e-19,-0.004999999888241291,0,0,0,0,1.25,0,-0.5,-0.75,0,1],"name":"Object_26"},{"mesh":11,"name":"im_edge_cylinder"},{"mesh":12,"name":"im_0d5280ff"}],"scene":0,"scenes":[{"name":"Sketchfab_Scene","nodes":[0]}]}